<svg width="361" height="172" viewBox="0 0 361 172" fill="none" xmlns="http://www.w3.org/2000/svg">
<path d="M55.7955 130.3C49.7955 130.3 44.4455 127.2 39.7455 121C33.3455 122.9 27.4955 123.85 22.1955 123.85C16.3955 123.85 11.8455 122.75 8.54551 120.55C5.24551 118.45 3.59551 115.8 3.59551 112.6C3.59551 110.1 4.64551 107.4 6.74551 104.5C8.84551 101.6 12.0955 98.75 16.4955 95.95C18.2955 94.85 20.2455 93.75 22.3455 92.65C24.5455 91.55 26.8955 90.55 29.3955 89.65C29.0955 86.45 28.9455 83.05 28.9455 79.45C28.9455 71.25 29.8455 62.25 31.6455 52.45C33.4455 42.55 36.4455 31.9 40.6455 20.5C33.2455 24.2 26.4455 28.6 20.2455 33.7C14.0455 38.7 9.24551 43.85 5.84551 49.15C4.74551 50.95 3.39551 51.85 1.79551 51.85C0.695508 51.85 0.145508 51.3 0.145508 50.2C0.145508 49.4 0.595508 48.2 1.49551 46.6C2.29551 45 3.74551 43 5.84551 40.6C9.84551 36 15.0455 31.55 21.4455 27.25C27.8455 22.95 34.8455 19.25 42.4455 16.15C44.1455 11.45 46.0955 6.84999 48.2955 2.35C48.8955 1.05 49.7955 0.399997 50.9955 0.399997C51.7955 0.399997 52.4455 0.699996 52.9455 1.29999C53.5455 1.79999 53.8455 2.44999 53.8455 3.25C53.8455 3.65 53.7455 4.15 53.5455 4.74999C52.9455 6.14999 52.3455 7.54999 51.7455 8.94999C51.2455 10.35 50.7455 11.75 50.2455 13.15C51.6455 12.65 53.0955 12.2 54.5955 11.8C56.0955 11.4 57.5455 11 58.9455 10.6C66.7455 8.8 73.6955 7.9 79.7955 7.9C87.7955 7.9 94.3955 9.25 99.5955 11.95C104.796 14.65 108.646 18.35 111.146 23.05C113.646 27.65 114.896 32.9 114.896 38.8C114.896 44.9 113.596 51.35 110.996 58.15C108.496 64.95 104.796 71.8 99.8955 78.7C94.9955 85.5 88.8955 91.95 81.5955 98.05C74.3955 104.15 66.1455 109.55 56.8455 114.25C51.9455 116.65 47.2955 118.6 42.8955 120.1C45.2955 122.6 47.7455 124.35 50.2455 125.35C52.7455 126.35 54.7955 126.85 56.3955 126.85C57.7955 126.85 58.7955 126.55 59.3955 125.95C60.2955 124.95 61.2455 124.45 62.2455 124.45C62.9455 124.45 63.5455 124.65 64.0455 125.05C64.5455 125.45 64.7955 125.9 64.7955 126.4C64.7955 127.2 64.1455 127.95 62.8455 128.65C61.6455 129.25 60.4455 129.65 59.2455 129.85C58.0455 130.15 56.8955 130.3 55.7955 130.3ZM41.3955 118.3C43.6955 117.5 46.0955 116.5 48.5955 115.3C51.1955 114.2 53.8455 112.85 56.5455 111.25C67.8455 104.75 77.1955 97.45 84.5955 89.35C92.0955 81.15 97.6955 72.85 101.396 64.45C105.196 56.05 107.096 48.25 107.096 41.05C107.096 32.45 104.496 25.4 99.2955 19.9C94.0955 14.3 86.2955 11.5 75.8955 11.5C70.8955 11.5 65.2455 12.25 58.9455 13.75C57.2455 14.15 55.5455 14.65 53.8455 15.25C52.1455 15.75 50.4455 16.35 48.7455 17.05C42.6455 33.05 38.4455 46.9 36.1455 58.6C33.8455 70.2 32.7455 80.1 32.8455 88.3C37.7455 86.6 42.9955 85.25 48.5955 84.25C54.2955 83.25 60.1955 82.75 66.2955 82.75C67.3955 82.75 68.4955 82.8 69.5955 82.9C70.7955 82.9 71.9955 82.95 73.1955 83.05C74.4955 83.15 75.1455 83.45 75.1455 83.95C75.1455 84.75 73.6455 85.15 70.6455 85.15C69.3455 85.15 67.9955 85.1 66.5955 85C65.2955 84.9 63.9955 84.85 62.6955 84.85C57.0955 84.85 51.7455 85.4 46.6455 86.5C41.5455 87.6 36.9455 89 32.8455 90.7C33.1455 97.4 34.0955 103 35.6955 107.5C37.2955 111.9 39.1955 115.5 41.3955 118.3ZM26.3955 121C29.8955 121 33.8955 120.4 38.3955 119.2C36.2955 116 34.4455 112.15 32.8455 107.65C31.3455 103.05 30.2455 97.85 29.5455 92.05C24.7455 94.45 20.8455 97 17.8455 99.7C15.5455 101.7 13.8455 103.7 12.7455 105.7C11.6455 107.7 11.0955 109.55 11.0955 111.25C11.0955 114.05 12.4455 116.35 15.1455 118.15C17.8455 120.05 21.5955 121 26.3955 121ZM121.385 110.8C119.585 110.8 118.285 110.05 117.485 108.55C116.685 106.95 116.285 105.1 116.285 103C116.285 100.3 116.735 97.15 117.635 93.55C118.635 89.95 119.935 86.25 121.535 82.45C123.135 78.55 124.935 75 126.935 71.8C129.035 68.5 131.235 65.85 133.535 63.85C135.835 61.75 138.085 60.7 140.285 60.7C142.285 60.7 143.985 61.6 145.385 63.4C146.885 65.1 147.635 67.05 147.635 69.25C147.635 70.55 147.435 71.65 147.035 72.55C146.635 73.35 146.185 73.75 145.685 73.75C145.285 73.75 144.935 73.45 144.635 72.85C143.635 70.55 142.535 68.9 141.335 67.9C140.235 66.9 139.085 66.4 137.885 66.4C135.885 66.4 133.885 67.55 131.885 69.85C129.985 72.05 128.435 74.6 127.235 77.5C126.235 79.7 125.285 82.35 124.385 85.45C123.585 88.45 122.885 91.45 122.285 94.45C121.785 97.35 121.535 99.75 121.535 101.65C121.535 105.05 122.335 106.75 123.935 106.75C125.935 106.75 128.485 104.55 131.585 100.15C133.885 96.95 135.935 93.25 137.735 89.05C139.635 84.85 141.235 81.2 142.535 78.1C143.035 77.1 143.585 76.45 144.185 76.15C144.785 75.85 145.335 75.7 145.835 75.7C147.035 75.7 147.785 76.2 148.085 77.2C148.485 78.2 148.685 79.05 148.685 79.75C148.685 82.35 148.435 84.7 147.935 86.8C147.435 88.8 147.185 91.25 147.185 94.15C147.185 96.25 147.335 98.2 147.635 100C148.035 101.7 148.685 102.55 149.585 102.55C150.685 102.55 152.085 101.15 153.785 98.35C154.185 97.55 154.785 97.15 155.585 97.15C156.485 97.15 156.935 97.6 156.935 98.5C156.935 99.8 156.035 101.2 154.235 102.7C152.435 104.1 150.635 104.8 148.835 104.8C146.435 104.8 144.735 103.8 143.735 101.8C142.035 98.5 141.185 95.55 141.185 92.95C141.185 90.25 141.135 88.4 141.035 87.4C140.535 88.6 139.585 90.5 138.185 93.1C136.785 95.6 135.135 98.25 133.235 101.05C131.335 103.75 129.335 106.05 127.235 107.95C125.135 109.85 123.185 110.8 121.385 110.8ZM175.49 119.5C172.29 119.5 169.84 118 168.14 115C166.44 112.1 165.59 108.9 165.59 105.4C165.59 102.1 166.14 98.65 167.24 95.05C168.34 91.45 169.69 87.9 171.29 84.4C172.99 80.9 174.74 77.7 176.54 74.8C174.74 75.5 173.04 75.85 171.44 75.85C170.64 75.85 169.94 75.75 169.34 75.55C168.74 75.35 168.24 75.2 167.84 75.1C167.34 76.3 166.44 78.3 165.14 81.1C163.94 83.9 162.64 86.85 161.24 89.95C159.94 92.95 158.79 95.5 157.79 97.6C156.19 101 154.79 102.7 153.59 102.7C152.99 102.7 152.69 102.3 152.69 101.5C152.69 100.9 152.94 100.1 153.44 99.1C155.74 94.8 157.89 90.55 159.89 86.35C161.99 82.15 163.89 78.1 165.59 74.2C165.39 73.7 165.19 73.05 164.99 72.25C164.79 71.35 164.69 70.4 164.69 69.4C164.69 68.3 164.79 67.15 164.99 65.95C165.29 64.65 165.69 63.4 166.19 62.2C166.49 61.5 167.04 60.5 167.84 59.2C168.64 57.8 169.54 56.55 170.54 55.45C171.54 54.25 172.49 53.65 173.39 53.65C175.09 53.65 175.94 54.55 175.94 56.35C175.94 58.05 175.39 60 174.29 62.2C173.29 64.4 172.24 66.45 171.14 68.35C170.04 70.15 169.49 71.5 169.49 72.4C169.49 73.2 169.89 73.6 170.69 73.6C171.79 73.6 173.14 73.05 174.74 71.95C176.44 70.75 177.79 69.65 178.79 68.65C179.29 68.15 180.09 67.4 181.19 66.4C182.29 65.3 183.34 64.75 184.34 64.75C185.34 64.75 185.99 65.05 186.29 65.65C186.69 66.25 186.89 66.95 186.89 67.75C186.89 68.65 186.49 69.8 185.69 71.2C184.89 72.5 183.94 73.8 182.84 75.1C181.84 76.4 180.99 77.5 180.29 78.4C178.89 80.5 177.29 83.15 175.49 86.35C173.69 89.55 172.14 93 170.84 96.7C169.54 100.3 168.89 103.75 168.89 107.05C168.89 109.25 169.44 111.55 170.54 113.95C171.64 116.35 173.14 117.55 175.04 117.55C176.74 117.55 178.54 116.65 180.44 114.85C182.44 113.05 184.29 110.9 185.99 108.4C187.79 105.9 189.34 103.5 190.64 101.2C192.04 98.9 192.99 97.3 193.49 96.4C193.69 95.9 194.04 95.3 194.54 94.6C195.04 93.8 195.64 93.4 196.34 93.4C196.94 93.4 197.24 93.7 197.24 94.3C197.24 94.8 197.09 95.4 196.79 96.1C196.59 96.7 196.39 97.25 196.19 97.75C195.29 99.85 194.19 102.05 192.89 104.35C191.59 106.65 190.69 108.2 190.19 109C188.79 111.3 186.69 113.6 183.89 115.9C181.19 118.3 178.39 119.5 175.49 119.5ZM217.015 135.85C215.715 135.85 214.465 135.35 213.265 134.35C212.165 133.35 211.215 132.35 210.415 131.35C207.215 127.65 204.515 122.75 202.315 116.65C200.215 110.55 198.615 103.85 197.515 96.55C196.415 89.15 195.865 81.65 195.865 74.05C195.865 66.95 196.315 60.05 197.215 53.35C198.215 46.65 199.715 40.55 201.715 35.05C203.715 29.55 206.215 25.15 209.215 21.85C213.115 17.45 216.865 15.25 220.465 15.25C222.665 15.25 224.415 16.25 225.715 18.25C227.115 20.15 227.815 23.2 227.815 27.4C227.815 31.4 227.015 36.5 225.415 42.7C223.915 48.8 221.315 56.1 217.615 64.6C216.315 67.4 214.915 70.2 213.415 73C212.015 75.8 210.515 78.75 208.915 81.85C208.315 83.05 207.815 83.65 207.415 83.65C207.215 83.65 207.115 83.45 207.115 83.05C207.115 82.25 207.465 81.2 208.165 79.9C217.265 62.8 221.815 45.8 221.815 28.9C221.815 22.2 220.415 18.85 217.615 18.85C215.615 18.85 213.265 20.8 210.565 24.7C206.865 30.2 204.315 36.75 202.915 44.35C201.515 51.85 200.815 59.45 200.815 67.15C200.815 72.95 201.065 78.6 201.565 84.1C202.065 89.5 202.665 94.4 203.365 98.8C203.665 100.7 204.115 103.25 204.715 106.45C205.315 109.65 206.115 113 207.115 116.5C208.115 120.1 209.215 123.35 210.415 126.25C211.715 129.25 213.115 131.4 214.615 132.7C215.015 133 215.415 133.3 215.815 133.6C216.315 134 216.865 134.25 217.465 134.35C218.365 134.35 218.815 134.6 218.815 135.1C218.815 135.6 218.215 135.85 217.015 135.85ZM235.01 61.9C234.11 61.9 233.46 61.45 233.06 60.55C232.76 59.55 232.61 58.85 232.61 58.45C232.61 56.85 233.06 55.35 233.96 53.95C234.96 52.45 236.06 51.65 237.26 51.55H237.71C238.91 51.55 239.71 51.85 240.11 52.45C240.61 52.95 240.86 53.6 240.86 54.4C240.86 55.9 240.21 57.55 238.91 59.35C237.61 61.05 236.31 61.9 235.01 61.9ZM227.36 115.6C223.96 115.6 221.66 114.3 220.46 111.7C219.26 109.1 218.66 106.1 218.66 102.7C218.66 99.3 219.01 95.75 219.71 92.05C220.51 88.25 221.36 84.8 222.26 81.7C223.26 78.6 224.01 76.4 224.51 75.1C225.61 72.8 226.71 70.85 227.81 69.25C228.91 67.55 230.11 66.7 231.41 66.7C232.31 66.7 232.96 67.05 233.36 67.75C233.86 68.35 234.11 69.15 234.11 70.15C234.11 72.15 233.56 74.2 232.46 76.3C231.36 78.3 230.36 80.2 229.46 82C227.46 86.1 225.86 89.75 224.66 92.95C223.56 96.15 223.01 100.15 223.01 104.95C223.01 108.05 223.31 110.3 223.91 111.7C224.61 113.1 225.56 113.8 226.76 113.8C228.36 113.8 230.21 112.9 232.31 111.1C234.41 109.2 236.56 106.7 238.76 103.6C240.96 100.5 242.91 97.15 244.61 93.55C245.71 91.25 246.56 90.1 247.16 90.1C247.56 90.1 247.76 90.5 247.76 91.3C247.76 92.4 247.31 94 246.41 96.1C245.61 98.1 244.61 100.15 243.41 102.25C242.31 104.35 241.26 106 240.26 107.2C238.56 109.4 236.61 111.35 234.41 113.05C232.21 114.75 229.86 115.6 227.36 115.6ZM275.67 113.95C274.37 113.95 273.22 113.15 272.22 111.55C271.22 109.85 270.72 106.65 270.72 101.95C270.72 98.25 271.02 94.2 271.62 89.8C272.22 85.3 272.87 80.85 273.57 76.45C274.37 72.05 275.07 68.15 275.67 64.75C276.27 61.25 276.57 58.7 276.57 57.1C276.57 54.3 275.72 52.9 274.02 52.9C272.42 52.9 270.77 53.7 269.07 55.3C267.47 56.9 265.92 58.85 264.42 61.15C263.02 63.45 261.77 65.7 260.67 67.9C259.67 70 259.02 71.55 258.72 72.55C257.32 76.45 256.32 80.35 255.72 84.25C255.12 88.05 254.82 92 254.82 96.1C254.82 97.8 254.87 99.55 254.97 101.35C255.17 103.15 255.32 105 255.42 106.9C255.62 107.9 255.32 109.15 254.52 110.65C253.82 112.05 252.97 112.75 251.97 112.75C251.27 112.75 250.67 112.3 250.17 111.4C249.67 110.5 249.32 109.7 249.12 109C248.72 107.8 248.42 106.55 248.22 105.25C248.02 103.85 247.82 102.65 247.62 101.65C246.92 97.55 246.27 93.4 245.67 89.2C245.07 84.9 244.22 80.75 243.12 76.75C242.82 75.65 242.42 74.5 241.92 73.3C241.52 72 240.87 70.95 239.97 70.15C239.77 69.95 239.47 69.75 239.07 69.55C238.67 69.25 238.47 69 238.47 68.8C238.47 68.4 239.02 68.2 240.12 68.2C241.32 68.2 242.52 68.8 243.72 70C244.92 71.2 246.02 72.8 247.02 74.8C248.22 77.3 249.22 79.95 250.02 82.75C250.92 85.55 251.62 87.8 252.12 89.5C252.72 85.9 253.37 82.7 254.07 79.9C254.77 77.5 255.72 74.65 256.92 71.35C258.12 67.95 259.62 64.65 261.42 61.45C263.22 58.15 265.37 55.45 267.87 53.35C270.37 51.15 273.27 50.05 276.57 50.05C281.37 50.05 283.77 52.85 283.77 58.45C283.77 61.35 283.27 64.55 282.27 68.05C281.27 71.45 280.17 74.6 278.97 77.5C277.87 80.4 277.12 82.4 276.72 83.5C276.22 84.9 275.67 86.8 275.07 89.2C274.57 91.6 274.12 94.1 273.72 96.7C273.42 99.3 273.27 101.7 273.27 103.9C273.27 105.8 273.47 107.4 273.87 108.7C274.37 109.9 275.12 110.5 276.12 110.5C277.12 110.5 278.02 110.05 278.82 109.15C279.62 108.15 280.27 107.25 280.77 106.45C281.37 105.65 281.67 105.5 281.67 106C281.87 107.5 281.32 109.2 280.02 111.1C278.82 113 277.37 113.95 275.67 113.95ZM287.69 171.55C283.69 171.55 280.29 170.35 277.49 167.95C274.59 165.65 273.14 162.55 273.14 158.65C273.14 154.75 274.99 150.2 278.69 145C282.39 139.8 288.64 134.4 297.44 128.8C299.44 127.4 301.54 126.15 303.74 125.05C306.04 123.95 308.39 122.8 310.79 121.6C311.39 121.3 311.84 121.15 312.14 121.15C312.54 121.15 312.74 121.3 312.74 121.6C312.74 122.3 312.04 123.05 310.64 123.85C305.84 126.25 301.74 128.75 298.34 131.35C295.04 134.05 291.99 137.2 289.19 140.8C287.69 142.7 286.09 144.9 284.39 147.4C282.79 150 281.44 152.55 280.34 155.05C279.14 157.55 278.54 159.8 278.54 161.8C278.54 166 280.54 168.1 284.54 168.1C286.24 168.1 288.24 167.6 290.54 166.6C292.84 165.7 295.34 164.2 298.04 162.1C304.84 156.8 309.64 150.9 312.44 144.4C315.24 138 316.64 130.5 316.64 121.9C316.64 115.5 316.04 108.4 314.84 100.6C313.74 92.6 313.14 84.95 313.04 77.65C312.54 80.75 311.69 84.5 310.49 88.9C309.39 93.2 308.04 97.3 306.44 101.2C304.84 105.1 303.04 108.45 301.04 111.25C299.14 114.05 296.69 115.45 293.69 115.45C291.59 115.45 289.79 114.4 288.29 112.3C286.89 110.2 286.19 107 286.19 102.7C286.19 99.5 286.74 95.7 287.84 91.3C288.94 86.9 290.44 82.65 292.34 78.55C294.24 74.35 296.34 70.9 298.64 68.2C301.04 65.4 303.44 64 305.84 64C307.54 64 308.74 64.7 309.44 66.1C310.24 67.4 310.64 68.75 310.64 70.15C310.64 71.25 310.44 72.2 310.04 73C309.64 73.8 309.04 74.2 308.24 74.2C307.44 74.1 306.84 73.75 306.44 73.15C306.14 72.45 305.84 71.8 305.54 71.2C305.24 70.5 304.69 70.15 303.89 70.15C302.29 70.15 300.74 71.2 299.24 73.3C297.84 75.3 296.54 77.95 295.34 81.25C294.24 84.45 293.34 87.85 292.64 91.45C292.04 95.05 291.74 98.35 291.74 101.35C291.74 104.15 292.04 106.45 292.64 108.25C293.34 110.05 294.39 111 295.79 111.1C297.49 111.2 299.14 110.1 300.74 107.8C302.34 105.5 303.79 102.55 305.09 98.95C306.49 95.35 307.69 91.55 308.69 87.55C309.79 83.45 310.69 79.65 311.39 76.15C312.19 72.55 312.74 69.75 313.04 67.75C313.84 62.45 314.59 59.1 315.29 57.7C315.99 56.2 316.74 55.45 317.54 55.45C318.24 55.45 318.84 56.1 319.34 57.4C319.94 58.7 320.24 59.9 320.24 61C320.24 61.8 320.19 62.35 320.09 62.65C318.89 69.25 318.29 76 318.29 82.9C318.29 85.8 318.39 88.7 318.59 91.6C318.79 94.4 319.04 97.2 319.34 100C319.94 105.8 320.24 111.2 320.24 116.2C320.24 126.4 319.19 135 317.09 142C315.09 149.1 312.44 154.8 309.14 159.1C305.84 163.5 302.29 166.65 298.49 168.55C294.79 170.55 291.19 171.55 287.69 171.55ZM342.763 118.45C341.463 118.45 340.513 118 339.913 117.1C339.413 116.3 339.163 115.5 339.163 114.7C339.163 113.1 339.863 111.45 341.263 109.75C341.763 109.15 342.463 108.35 343.363 107.35C344.263 106.25 344.913 105.4 345.313 104.8C344.013 103 342.263 101.35 340.063 99.85C337.863 98.35 335.713 96.45 333.613 94.15C331.713 92.05 330.113 89.5 328.813 86.5C327.513 83.4 326.863 80.45 326.863 77.65C326.863 74.35 327.613 71.2 329.113 68.2C330.613 65.2 332.463 62.6 334.663 60.4C337.063 58 339.713 56.1 342.613 54.7C345.513 53.2 348.513 52.45 351.613 52.45C353.713 52.45 355.763 52.95 357.763 53.95C359.763 54.95 360.763 56.6 360.763 58.9C360.763 61.6 360.163 62.95 358.963 62.95C358.463 62.95 358.113 62.45 357.913 61.45C357.813 60.95 357.763 60.45 357.763 59.95C357.763 59.35 357.763 58.95 357.763 58.75C357.763 57.75 357.313 56.9 356.413 56.2C355.513 55.4 354.513 55 353.413 55C351.113 55 348.563 55.9 345.763 57.7C342.963 59.5 340.613 61.6 338.713 64C336.813 66.5 335.263 69.35 334.063 72.55C332.863 75.65 332.263 78.65 332.263 81.55C332.263 85.15 333.063 88.25 334.663 90.85C336.263 93.45 338.163 95.75 340.363 97.75C342.663 99.75 344.713 101.7 346.513 103.6C347.413 102.5 348.363 101.45 349.363 100.45C350.463 99.45 351.463 98.65 352.363 98.05C353.163 97.55 353.713 97.3 354.013 97.3C354.313 97.3 354.463 97.45 354.463 97.75C354.463 98.25 354.013 98.85 353.113 99.55C352.913 99.75 352.313 100.35 351.313 101.35C350.413 102.25 349.313 103.4 348.013 104.8C348.813 105.7 349.463 106.65 349.963 107.65C350.463 108.65 350.713 109.75 350.713 110.95C350.713 112.55 349.813 114.2 348.013 115.9C346.213 117.6 344.463 118.45 342.763 118.45ZM344.413 114.4C345.113 114.4 345.763 113.75 346.363 112.45C347.063 111.25 347.413 110.05 347.413 108.85C347.413 108.25 347.313 107.7 347.113 107.2C346.913 106.7 346.763 106.4 346.663 106.3C345.863 107.3 345.113 108.4 344.413 109.6C343.813 110.7 343.513 111.7 343.513 112.6C343.513 113.8 343.813 114.4 344.413 114.4Z" fill="white"/>
</svg>
